<?xml version="1.0" standalone="no"?>
 <!DOCTYPE svg PUBLIC "-//W3C//DTD SVG 1.1//EN" 
 "http://www.w3.org/Graphics/SVG/1.1/DTD/svg11.dtd"> 
<svg xmlns="http://www.w3.org/2000/svg" version="1.1" 
    width="4.49834cm" height="4.24942cm" viewBox="0 0 17710 16730 ">
<title>SVG Picture created as circuit_protection-brd.svg date 2018/12/30 08:33:20 </title>
  <desc>Picture generated by PCBNEW </desc>
<g style="fill:#000000; fill-opacity:1;stroke:#000000; stroke-opacity:1;
stroke-linecap:round; stroke-linejoin:round; "
 transform="translate(0 0) scale(1 1)">
</g>
<g style="fill:#000000; fill-opacity:0.0; 
stroke:#000000; stroke-width:-0.000393701; stroke-opacity:1; 
stroke-linecap:round; stroke-linejoin:round;">
</g>
<g style="fill:#000000; fill-opacity:0.0; 
stroke:#000000; stroke-width:0; stroke-opacity:1; 
stroke-linecap:round; stroke-linejoin:round;">
</g>
<g style="fill:#000000; fill-opacity:1.0; 
stroke:#000000; stroke-width:0; stroke-opacity:1; 
stroke-linecap:round; stroke-linejoin:round;">
<polyline style="fill-rule:evenodd;"
points="12355,8267
13143,8267
13143,7775
12355,7775
12355,8267
" /> 
<polyline style="fill-rule:evenodd;"
points="12355,6791
13143,6791
13143,6299
12355,6299
12355,6791
" /> 
<polyline style="fill-rule:evenodd;"
points="9324,4429
9127,4429
9127,4625
9324,4625
9324,4429
" /> 
<polyline style="fill-rule:evenodd;"
points="9324,5295
9127,5295
9127,5492
9324,5492
9324,5295
" /> 
<circle cx="15741.5" cy="1771.65" r="295.276" /> 
</g>
<g style="fill:#000000; fill-opacity:1.0; 
stroke:#000000; stroke-width:39.3701; stroke-opacity:1; 
stroke-linecap:round; stroke-linejoin:round;">
</g>
<g style="fill:#000000; fill-opacity:1.0; 
stroke:#000000; stroke-width:0; stroke-opacity:1; 
stroke-linecap:round; stroke-linejoin:round;">
<circle cx="15741.5" cy="14763.8" r="295.276" /> 
</g>
<g style="fill:#000000; fill-opacity:1.0; 
stroke:#000000; stroke-width:39.3701; stroke-opacity:1; 
stroke-linecap:round; stroke-linejoin:round;">
</g>
<g style="fill:#000000; fill-opacity:1.0; 
stroke:#000000; stroke-width:0; stroke-opacity:1; 
stroke-linecap:round; stroke-linejoin:round;">
<circle cx="1961.97" cy="1771.65" r="295.276" /> 
</g>
<g style="fill:#000000; fill-opacity:1.0; 
stroke:#000000; stroke-width:39.3701; stroke-opacity:1; 
stroke-linecap:round; stroke-linejoin:round;">
</g>
<g style="fill:#000000; fill-opacity:1.0; 
stroke:#000000; stroke-width:0; stroke-opacity:1; 
stroke-linecap:round; stroke-linejoin:round;">
<circle cx="1961.97" cy="14763.8" r="295.276" /> 
</g>
<g style="fill:#000000; fill-opacity:1.0; 
stroke:#000000; stroke-width:39.3701; stroke-opacity:1; 
stroke-linecap:round; stroke-linejoin:round;">
</g>
<g style="fill:#000000; fill-opacity:1.0; 
stroke:#000000; stroke-width:0; stroke-opacity:1; 
stroke-linecap:round; stroke-linejoin:round;">
<polyline style="fill-rule:evenodd;"
points="12611,4212
12926,4212
12926,3858
12611,3858
12611,4212
" /> 
<polyline style="fill-rule:evenodd;"
points="11863,4212
12178,4212
12178,3858
11863,3858
11863,4212
" /> 
<polyline style="fill-rule:evenodd;"
points="12237,3425
12552,3425
12552,3070
12237,3070
12237,3425
" /> 
<polyline style="fill-rule:evenodd;"
points="5150,3425
5465,3425
5465,3070
5150,3070
5150,3425
" /> 
<polyline style="fill-rule:evenodd;"
points="4776,4212
5091,4212
5091,3858
4776,3858
4776,4212
" /> 
<polyline style="fill-rule:evenodd;"
points="5524,4212
5839,4212
5839,3858
5524,3858
5524,4212
" /> 
<polyline style="fill-rule:evenodd;"
points="9068,4212
9383,4212
9383,3858
9068,3858
9068,4212
" /> 
<polyline style="fill-rule:evenodd;"
points="8320,4212
8635,4212
8635,3858
8320,3858
8320,4212
" /> 
<polyline style="fill-rule:evenodd;"
points="8694,3425
9009,3425
9009,3070
8694,3070
8694,3425
" /> 
</g>
<g style="fill:#000000; fill-opacity:1.0; 
stroke:#000000; stroke-width:629.921; stroke-opacity:1; 
stroke-linecap:round; stroke-linejoin:round;">
</g>
<g style="fill:#000000; fill-opacity:0.0; 
stroke:#000000; stroke-width:629.921; stroke-opacity:1; 
stroke-linecap:round; stroke-linejoin:round;">
<path d="M10623 4031
L10623 4031
" />
</g>
<g style="fill:#000000; fill-opacity:1.0; 
stroke:#000000; stroke-width:0; stroke-opacity:1; 
stroke-linecap:round; stroke-linejoin:round;">
<circle cx="10623.4" cy="8031.5" r="314.961" /> 
</g>
<g style="fill:#000000; fill-opacity:1.0; 
stroke:#000000; stroke-width:39.3701; stroke-opacity:1; 
stroke-linecap:round; stroke-linejoin:round;">
</g>
<g style="fill:#000000; fill-opacity:1.0; 
stroke:#000000; stroke-width:0; stroke-opacity:1; 
stroke-linecap:round; stroke-linejoin:round;">
<circle cx="14481.7" cy="6535.43" r="314.961" /> 
</g>
<g style="fill:#000000; fill-opacity:1.0; 
stroke:#000000; stroke-width:39.3701; stroke-opacity:1; 
stroke-linecap:round; stroke-linejoin:round;">
</g>
<g style="fill:#000000; fill-opacity:1.0; 
stroke:#000000; stroke-width:629.921; stroke-opacity:1; 
stroke-linecap:round; stroke-linejoin:round;">
</g>
<g style="fill:#000000; fill-opacity:0.0; 
stroke:#000000; stroke-width:629.921; stroke-opacity:1; 
stroke-linecap:round; stroke-linejoin:round;">
<path d="M14481 10535
L14481 10535
" />
</g>
<g style="fill:#000000; fill-opacity:1.0; 
stroke:#000000; stroke-width:0; stroke-opacity:1; 
stroke-linecap:round; stroke-linejoin:round;">
<circle cx="7395.04" cy="4055.12" r="314.961" /> 
</g>
<g style="fill:#000000; fill-opacity:1.0; 
stroke:#000000; stroke-width:39.3701; stroke-opacity:1; 
stroke-linecap:round; stroke-linejoin:round;">
</g>
<g style="fill:#000000; fill-opacity:1.0; 
stroke:#000000; stroke-width:629.921; stroke-opacity:1; 
stroke-linecap:round; stroke-linejoin:round;">
</g>
<g style="fill:#000000; fill-opacity:0.0; 
stroke:#000000; stroke-width:629.921; stroke-opacity:1; 
stroke-linecap:round; stroke-linejoin:round;">
<path d="M7395 8055
L7395 8055
" />
</g>
<g style="fill:#000000; fill-opacity:0.0; 
stroke:#000000; stroke-width:393.701; stroke-opacity:1; 
stroke-linecap:round; stroke-linejoin:round;">
<path d="M4934 4704
L4934 4035
" />
<path d="M5190 4960
L4934 4704
" />
<path d="M12021 4035
L12021 4645
" />
<path d="M12021 4645
L11706 4960
" />
<path d="M8477 4704
L8221 4960
" />
<path d="M8477 4035
L8477 4704
" />
<path d="M11706 4960
L8221 4960
" />
<path d="M8221 4960
L5190 4960
" />
<path d="M10623 6043
L11706 4960
" />
<path d="M10623 8031
L10623 6043
" />
<path d="M10633 8021
L10623 8031
" />
<path d="M12749 8021
L10633 8021
" />
<path d="M12749 4055
L12769 4035
" />
<path d="M12749 6545
L12749 4055
" />
<path d="M12759 6535
L12749 6545
" />
<path d="M14481 6535
L12759 6535
" />
</g>
<g style="fill:#000000; fill-opacity:0.0; 
stroke:#000000; stroke-width:196.85; stroke-opacity:1; 
stroke-linecap:round; stroke-linejoin:round;">
<path d="M9229 4031
L9225 4035
" />
<path d="M10623 4031
L9229 4031
" />
<path d="M9225 4527
L9225 4035
" />
<path d="M9225 5393
L9225 7696
" />
<path d="M8867 8055
L7395 8055
" />
<path d="M9225 7696
L8867 8055
" />
</g>
<g style="fill:#000000; fill-opacity:0.0; 
stroke:#000000; stroke-width:393.701; stroke-opacity:1; 
stroke-linecap:round; stroke-linejoin:round;">
<path d="M5682 4035
L6469 4035
" />
<path d="M5702 4055
L5682 4035
" />
<path d="M7395 4055
L5702 4055
" />
<path d="M8202 3248
L7395 4055
" />
<path d="M8851 3248
L8202 3248
" />
</g>
<g style="fill:#000000; fill-opacity:1.0; 
stroke:#000000; stroke-width:196.85; stroke-opacity:1; 
stroke-linecap:round; stroke-linejoin:round;">
<polyline style="fill-rule:evenodd;"
points="11706,3387
11863,3356
11902,3356
11939,3349
11939,3324
12013,3249
12393,3249
12393,3257
12396,3257
12396,3249
12776,3249
12850,3324
12850,3349
12887,3356
12926,3356
13118,3394
13193,3444
16794,3444
16794,3011
12850,3011
12850,3171
12776,3246
12396,3246
12396,2847
12393,2847
12393,3246
12013,3246
11939,3171
11939,3011
11984,2901
12068,2817
12178,2772
12318,2772
12393,2847
12396,2847
12471,2772
12611,2772
12721,2817
12805,2901
12850,3011
16794,3011
16794,2148
16115,2148
16096,2262
15881,2360
15645,2369
15423,2286
15386,2262
15367,2148
15741,1773
16115,2148
16794,2148
16794,1867
16339,1867
16256,2089
16232,2126
16117,2145
15743,1771
15739,1771
15365,2145
15250,2126
15152,1911
15143,1675
15226,1454
15250,1417
15365,1397
15739,1771
15743,1771
16117,1397
16232,1417
16330,1631
16339,1867
16794,1867
16794,1395
16115,1395
15741,1769
15367,1395
15386,1281
15601,1182
15837,1174
16059,1256
16096,1281
16115,1395
16794,1395
16794,718
11706,718
11706,3387
" /> 
<polyline style="fill-rule:evenodd;"
points="908,3444
4509,3444
4584,3394
4776,3356
4816,3356
4852,3349
4852,3324
4927,3249
5306,3249
5306,3257
5310,3257
5310,3249
5689,3249
5764,3324
5764,3346
5997,3346
5997,3011
5764,3011
5764,3171
5689,3246
5310,3246
5310,2847
5306,2847
5306,3246
4927,3246
4852,3171
4852,3011
4897,2901
4981,2817
5091,2772
5232,2772
5306,2847
5310,2847
5384,2772
5525,2772
5634,2817
5718,2901
5764,3011
5997,3011
5997,2148
2336,2148
2316,2262
2101,2360
1865,2369
1644,2286
1607,2262
1587,2148
1961,1773
2336,2148
5997,2148
5997,1867
2559,1867
2477,2089
2452,2126
2338,2145
1964,1771
1959,1771
1585,2145
1471,2126
1372,1911
1364,1675
1446,1454
1471,1417
1585,1397
1959,1771
1964,1771
2338,1397
2452,1417
2550,1631
2559,1867
5997,1867
5997,1395
2336,1395
1961,1769
1587,1395
1607,1281
1822,1182
2058,1174
2279,1256
2316,1281
2336,1395
5997,1395
5997,718
908,718
908,3444
" /> 
<polyline style="fill-rule:evenodd;"
points="908,15816
16794,15816
16794,15140
16115,15140
16096,15254
15881,15352
15645,15361
15423,15279
15386,15254
15367,15140
2336,15140
2316,15254
2101,15352
1865,15361
1644,15279
1607,15254
1587,15140
1961,14766
2336,15140
15367,15140
15741,14766
16115,15140
16794,15140
16794,14860
16339,14860
16256,15081
16232,15118
16117,15137
15743,14763
15739,14763
15365,15137
15250,15118
15152,14903
15150,14860
2559,14860
2477,15081
2452,15118
2338,15137
1964,14763
1959,14763
1585,15137
1471,15118
1372,14903
1364,14667
1446,14446
1471,14409
1585,14389
1959,14763
1964,14763
2338,14389
2452,14409
2550,14623
2559,14860
15150,14860
15143,14667
15226,14446
15250,14409
15365,14389
15739,14763
15743,14763
16117,14389
16232,14409
16330,14623
16339,14860
16794,14860
16794,14387
16115,14387
15741,14761
15367,14387
2336,14387
1961,14761
1587,14387
1607,14273
1822,14174
2058,14166
2279,14248
2316,14273
2336,14387
15367,14387
15386,14273
15601,14174
15837,14166
16059,14248
16096,14273
16115,14387
16794,14387
16794,10632
15087,10632
15003,10857
14840,11032
14623,11132
14579,11141
14483,11074
14483,10537
14480,10537
14480,11074
14384,11141
14339,11132
14122,11032
13959,10857
13876,10632
13942,10537
14480,10537
14483,10537
15020,10537
15087,10632
16794,10632
16794,10437
15087,10437
15020,10533
14483,10533
14483,9996
14480,9996
14480,10533
13942,10533
13876,10437
13959,10213
14122,10038
14339,9938
14384,9929
14480,9996
14483,9996
14579,9929
14623,9938
14840,10038
15003,10213
15087,10437
16794,10437
16794,8991
9796,8956
9758,8949
9726,8927
9705,8895
9698,8858
9698,8152
8000,8152
7917,8376
7754,8552
7536,8651
7492,8660
7396,8593
7396,8056
7393,8056
7393,8593
7297,8660
7253,8651
7035,8552
6872,8376
6789,8152
6856,8056
7393,8056
7396,8056
7933,8056
8000,8152
9698,8152
9698,7957
8000,7957
7933,8053
7396,8053
7396,7516
7393,7516
7393,8053
6856,8053
6789,7957
6872,7733
7035,7557
7253,7458
7297,7449
7393,7516
7396,7516
7492,7449
7536,7458
7754,7557
7917,7733
8000,7957
9698,7957
9698,5649
9581,5649
9577,5661
9493,5745
9383,5790
9301,5790
9227,5715
9227,5649
9224,5649
9224,5715
9149,5790
9067,5790
8958,5745
8874,5661
8869,5649
8289,5649
8221,5663
8153,5649
5258,5649
5190,5663
5122,5649
5122,5649
4921,5609
4693,5457
4655,5399
4629,5374
908,5374
908,15816
" /> 
</g>
<g style="fill:#FFFFFF; fill-opacity:1.0; 
stroke:#FFFFFF; stroke-width:196.85; stroke-opacity:1; 
stroke-linecap:round; stroke-linejoin:round;">
</g>
<g style="fill:#FFFFFF; fill-opacity:1.0; 
stroke:#FFFFFF; stroke-width:0; stroke-opacity:1; 
stroke-linecap:round; stroke-linejoin:round;">
<circle cx="15741.5" cy="1771.65" r="137.795" /> 
</g>
<g style="fill:#FFFFFF; fill-opacity:1.0; 
stroke:#FFFFFF; stroke-width:39.3701; stroke-opacity:1; 
stroke-linecap:round; stroke-linejoin:round;">
</g>
<g style="fill:#FFFFFF; fill-opacity:1.0; 
stroke:#FFFFFF; stroke-width:0; stroke-opacity:1; 
stroke-linecap:round; stroke-linejoin:round;">
<circle cx="15741.5" cy="14763.8" r="137.795" /> 
</g>
<g style="fill:#FFFFFF; fill-opacity:1.0; 
stroke:#FFFFFF; stroke-width:39.3701; stroke-opacity:1; 
stroke-linecap:round; stroke-linejoin:round;">
</g>
<g style="fill:#FFFFFF; fill-opacity:1.0; 
stroke:#FFFFFF; stroke-width:0; stroke-opacity:1; 
stroke-linecap:round; stroke-linejoin:round;">
<circle cx="1961.97" cy="1771.65" r="137.795" /> 
</g>
<g style="fill:#FFFFFF; fill-opacity:1.0; 
stroke:#FFFFFF; stroke-width:39.3701; stroke-opacity:1; 
stroke-linecap:round; stroke-linejoin:round;">
</g>
<g style="fill:#FFFFFF; fill-opacity:1.0; 
stroke:#FFFFFF; stroke-width:0; stroke-opacity:1; 
stroke-linecap:round; stroke-linejoin:round;">
<circle cx="1961.97" cy="14763.8" r="137.795" /> 
</g>
<g style="fill:#FFFFFF; fill-opacity:1.0; 
stroke:#FFFFFF; stroke-width:39.3701; stroke-opacity:1; 
stroke-linecap:round; stroke-linejoin:round;">
</g>
<g style="fill:#FFFFFF; fill-opacity:1.0; 
stroke:#FFFFFF; stroke-width:0; stroke-opacity:1; 
stroke-linecap:round; stroke-linejoin:round;">
<circle cx="10623.4" cy="4031.5" r="157.48" /> 
</g>
<g style="fill:#FFFFFF; fill-opacity:1.0; 
stroke:#FFFFFF; stroke-width:39.3701; stroke-opacity:1; 
stroke-linecap:round; stroke-linejoin:round;">
</g>
<g style="fill:#FFFFFF; fill-opacity:1.0; 
stroke:#FFFFFF; stroke-width:0; stroke-opacity:1; 
stroke-linecap:round; stroke-linejoin:round;">
<circle cx="10623.4" cy="8031.5" r="157.48" /> 
</g>
<g style="fill:#FFFFFF; fill-opacity:1.0; 
stroke:#FFFFFF; stroke-width:39.3701; stroke-opacity:1; 
stroke-linecap:round; stroke-linejoin:round;">
</g>
<g style="fill:#FFFFFF; fill-opacity:1.0; 
stroke:#FFFFFF; stroke-width:0; stroke-opacity:1; 
stroke-linecap:round; stroke-linejoin:round;">
<circle cx="14481.7" cy="6535.43" r="157.48" /> 
</g>
<g style="fill:#FFFFFF; fill-opacity:1.0; 
stroke:#FFFFFF; stroke-width:39.3701; stroke-opacity:1; 
stroke-linecap:round; stroke-linejoin:round;">
</g>
<g style="fill:#FFFFFF; fill-opacity:1.0; 
stroke:#FFFFFF; stroke-width:0; stroke-opacity:1; 
stroke-linecap:round; stroke-linejoin:round;">
<circle cx="14481.7" cy="10535.4" r="157.48" /> 
</g>
<g style="fill:#FFFFFF; fill-opacity:1.0; 
stroke:#FFFFFF; stroke-width:39.3701; stroke-opacity:1; 
stroke-linecap:round; stroke-linejoin:round;">
</g>
<g style="fill:#FFFFFF; fill-opacity:1.0; 
stroke:#FFFFFF; stroke-width:0; stroke-opacity:1; 
stroke-linecap:round; stroke-linejoin:round;">
<circle cx="7395.04" cy="4055.12" r="157.48" /> 
</g>
<g style="fill:#FFFFFF; fill-opacity:1.0; 
stroke:#FFFFFF; stroke-width:39.3701; stroke-opacity:1; 
stroke-linecap:round; stroke-linejoin:round;">
</g>
<g style="fill:#FFFFFF; fill-opacity:1.0; 
stroke:#FFFFFF; stroke-width:0; stroke-opacity:1; 
stroke-linecap:round; stroke-linejoin:round;">
<circle cx="7395.04" cy="8055.12" r="157.48" /> 
</g>
<g style="fill:#FFFFFF; fill-opacity:1.0; 
stroke:#FFFFFF; stroke-width:39.3701; stroke-opacity:1; 
stroke-linecap:round; stroke-linejoin:round;">
</g>
<g style="fill:#000000; fill-opacity:1.0; 
stroke:#000000; stroke-width:39.3701; stroke-opacity:1; 
stroke-linecap:round; stroke-linejoin:round;">
</g>
<g style="fill:#000000; fill-opacity:1.0; 
stroke:#000000; stroke-width:59.0551; stroke-opacity:1; 
stroke-linecap:round; stroke-linejoin:round;">
</g>
<g style="fill:#000000; fill-opacity:0.0; 
stroke:#000000; stroke-width:59.0551; stroke-opacity:1; 
stroke-linecap:round; stroke-linejoin:round;">
<path d="M17316 16338
L17316 196
" />
<path d="M387 16338
L17316 16338
" />
<path d="M387 196
L387 16338
" />
<path d="M17316 196
L387 196
" />
</g> 
</svg>
