%TF.GenerationSoftware,KiCad,Pcbnew,7.0.1*%
%TF.CreationDate,2023-04-18T18:42:17-04:00*%
%TF.ProjectId,circuit_protection,63697263-7569-4745-9f70-726f74656374,V2*%
%TF.SameCoordinates,PX7045748PY52104d0*%
%TF.FileFunction,Copper,L2,Bot*%
%TF.FilePolarity,Positive*%
%FSLAX46Y46*%
G04 Gerber Fmt 4.6, Leading zero omitted, Abs format (unit mm)*
G04 Created by KiCad (PCBNEW 7.0.1) date 2023-04-18 18:42:17*
%MOMM*%
%LPD*%
G01*
G04 APERTURE LIST*
G04 Aperture macros list*
%AMRoundRect*
0 Rectangle with rounded corners*
0 $1 Rounding radius*
0 $2 $3 $4 $5 $6 $7 $8 $9 X,Y pos of 4 corners*
0 Add a 4 corners polygon primitive as box body*
4,1,4,$2,$3,$4,$5,$6,$7,$8,$9,$2,$3,0*
0 Add four circle primitives for the rounded corners*
1,1,$1+$1,$2,$3*
1,1,$1+$1,$4,$5*
1,1,$1+$1,$6,$7*
1,1,$1+$1,$8,$9*
0 Add four rect primitives between the rounded corners*
20,1,$1+$1,$2,$3,$4,$5,0*
20,1,$1+$1,$4,$5,$6,$7,0*
20,1,$1+$1,$6,$7,$8,$9,0*
20,1,$1+$1,$8,$9,$2,$3,0*%
%AMFreePoly0*
4,1,17,2.210000,-2.600000,1.600000,-2.600000,1.600000,-1.750000,0.940000,-1.750000,0.940000,-2.600000,0.330000,-2.600000,0.330000,-1.750000,-0.330000,-1.750000,-0.330000,-2.600000,-0.940000,-2.600000,-0.940000,-1.750000,-1.600000,-1.750000,-1.600000,-2.600000,-2.210000,-2.600000,-2.210000,1.750000,2.210000,1.750000,2.210000,-2.600000,2.210000,-2.600000,$1*%
G04 Aperture macros list end*
%TA.AperFunction,SMDPad,CuDef*%
%ADD10R,10.000000X5.000000*%
%TD*%
%TA.AperFunction,SMDPad,CuDef*%
%ADD11RoundRect,0.061000X-0.244000X-0.514000X0.244000X-0.514000X0.244000X0.514000X-0.244000X0.514000X0*%
%TD*%
%TA.AperFunction,SMDPad,CuDef*%
%ADD12FreePoly0,0.000000*%
%TD*%
%TA.AperFunction,SMDPad,CuDef*%
%ADD13R,1.000000X1.700000*%
%TD*%
%TA.AperFunction,SMDPad,CuDef*%
%ADD14R,1.700000X1.000000*%
%TD*%
%TA.AperFunction,SMDPad,CuDef*%
%ADD15RoundRect,0.200000X0.275000X-0.200000X0.275000X0.200000X-0.275000X0.200000X-0.275000X-0.200000X0*%
%TD*%
%TA.AperFunction,SMDPad,CuDef*%
%ADD16RoundRect,0.200000X-0.275000X0.200000X-0.275000X-0.200000X0.275000X-0.200000X0.275000X0.200000X0*%
%TD*%
%TA.AperFunction,SMDPad,CuDef*%
%ADD17RoundRect,0.200000X0.200000X0.275000X-0.200000X0.275000X-0.200000X-0.275000X0.200000X-0.275000X0*%
%TD*%
%TA.AperFunction,SMDPad,CuDef*%
%ADD18RoundRect,0.150000X0.587500X0.150000X-0.587500X0.150000X-0.587500X-0.150000X0.587500X-0.150000X0*%
%TD*%
%TA.AperFunction,SMDPad,CuDef*%
%ADD19RoundRect,0.150000X-0.587500X-0.150000X0.587500X-0.150000X0.587500X0.150000X-0.587500X0.150000X0*%
%TD*%
%TA.AperFunction,SMDPad,CuDef*%
%ADD20RoundRect,0.250000X0.900000X-1.000000X0.900000X1.000000X-0.900000X1.000000X-0.900000X-1.000000X0*%
%TD*%
%TA.AperFunction,ViaPad*%
%ADD21C,1.600000*%
%TD*%
%TA.AperFunction,Conductor*%
%ADD22C,0.800000*%
%TD*%
G04 APERTURE END LIST*
D10*
%TO.P,J4,1,Pin_1*%
%TO.N,GND*%
X7975000Y-30850000D03*
%TD*%
%TO.P,J3,1,Pin_1*%
%TO.N,GND*%
X31350000Y-30850000D03*
%TD*%
%TO.P,J2,1,Pin_1*%
%TO.N,/Vout*%
X31400000Y-20550000D03*
%TD*%
%TO.P,J1,1,Pin_1*%
%TO.N,/Vin*%
X7975000Y-20550000D03*
%TD*%
D11*
%TO.P,Q2,1,S*%
%TO.N,Net-(D1-K)*%
X21720000Y-16125000D03*
%TO.P,Q2,2,S*%
X22990000Y-16125000D03*
%TO.P,Q2,3,S*%
X24260000Y-16125000D03*
%TO.P,Q2,4,G*%
%TO.N,Net-(D2-A)*%
X25530000Y-16125000D03*
D12*
%TO.P,Q2,5,D*%
%TO.N,/Vout*%
X23625000Y-19850000D03*
%TD*%
D11*
%TO.P,Q1,1,S*%
%TO.N,Net-(D1-K)*%
X14220000Y-16125000D03*
%TO.P,Q1,2,S*%
X15490000Y-16125000D03*
%TO.P,Q1,3,S*%
X16760000Y-16125000D03*
%TO.P,Q1,4,G*%
%TO.N,Net-(D1-A)*%
X18030000Y-16125000D03*
D12*
%TO.P,Q1,5,D*%
%TO.N,/Vin*%
X16125000Y-19850000D03*
%TD*%
D13*
%TO.P,D2,1,K*%
%TO.N,Net-(D1-K)*%
X22225000Y-8150000D03*
%TO.P,D2,2,A*%
%TO.N,Net-(D2-A)*%
X25525000Y-8150000D03*
%TD*%
D14*
%TO.P,D1,1,K*%
%TO.N,Net-(D1-K)*%
X19875000Y-12825000D03*
%TO.P,D1,2,A*%
%TO.N,Net-(D1-A)*%
X19875000Y-16125000D03*
%TD*%
D15*
%TO.P,R4,1*%
%TO.N,Net-(D2-A)*%
X25525000Y-6050000D03*
%TO.P,R4,2*%
%TO.N,GND*%
X25525000Y-4400000D03*
%TD*%
D16*
%TO.P,R3,1*%
%TO.N,Net-(D1-A)*%
X19875000Y-17725000D03*
%TO.P,R3,2*%
%TO.N,GND*%
X19875000Y-19375000D03*
%TD*%
D17*
%TO.P,R1,1*%
%TO.N,Net-(D1-K)*%
X22225000Y-10350000D03*
%TO.P,R1,2*%
%TO.N,Net-(D5-K)*%
X20575000Y-10350000D03*
%TD*%
D18*
%TO.P,Q3,1,B*%
%TO.N,Net-(D5-K)*%
X22225000Y-4050000D03*
%TO.P,Q3,2,E*%
%TO.N,Net-(D1-K)*%
X22225000Y-5950000D03*
%TO.P,Q3,3,C*%
%TO.N,Net-(D2-A)*%
X20350000Y-5000000D03*
%TD*%
D19*
%TO.P,D5,1,A*%
%TO.N,GND*%
X15025000Y-8325000D03*
%TO.P,D5,2,NC*%
%TO.N,unconnected-(D5-NC-Pad2)*%
X15025000Y-6425000D03*
%TO.P,D5,3,K*%
%TO.N,Net-(D5-K)*%
X16900000Y-7375000D03*
%TD*%
D20*
%TO.P,D4,1,A1*%
%TO.N,GND*%
X16125000Y-29100000D03*
%TO.P,D4,2,A2*%
%TO.N,/Vin*%
X16125000Y-24800000D03*
%TD*%
D21*
%TO.N,Net-(D2-A)*%
X27575000Y-5000000D03*
X18350000Y-5000000D03*
%TD*%
D22*
%TO.N,Net-(D5-K)*%
X20575000Y-10350000D02*
X17600000Y-10350000D01*
X17600000Y-10350000D02*
X16900000Y-9650000D01*
X16900000Y-9650000D02*
X16900000Y-7375000D01*
X16900000Y-7375000D02*
X16690000Y-7165000D01*
X16690000Y-7165000D02*
X16690000Y-4312405D01*
X16690000Y-4312405D02*
X17677405Y-3325000D01*
X17677405Y-3325000D02*
X21500000Y-3325000D01*
X21500000Y-3325000D02*
X22225000Y-4050000D01*
%TO.N,Net-(D2-A)*%
X26525000Y-6050000D02*
X25525000Y-6050000D01*
X27575000Y-5000000D02*
X26525000Y-6050000D01*
X20350000Y-5000000D02*
X18350000Y-5000000D01*
%TO.N,Net-(D1-K)*%
X22225000Y-8150000D02*
X22225000Y-5950000D01*
%TO.N,Net-(D2-A)*%
X25525000Y-8150000D02*
X25525000Y-6050000D01*
%TO.N,Net-(D1-K)*%
X22225000Y-10350000D02*
X22225000Y-11750000D01*
X22225000Y-8150000D02*
X22225000Y-10350000D01*
%TO.N,Net-(D2-A)*%
X25530000Y-16125000D02*
X25530000Y-8155000D01*
X25530000Y-8155000D02*
X25525000Y-8150000D01*
%TO.N,Net-(D1-A)*%
X19875000Y-16125000D02*
X19875000Y-17725000D01*
X18030000Y-16125000D02*
X19875000Y-16125000D01*
%TD*%
%TA.AperFunction,Conductor*%
%TO.N,/Vin*%
G36*
X18837500Y-17566613D02*
G01*
X18882887Y-17612000D01*
X18899500Y-17674000D01*
X18899500Y-17981714D01*
X18900000Y-17992740D01*
X18900000Y-19107260D01*
X18899500Y-19118286D01*
X18899500Y-19631714D01*
X18900000Y-19642740D01*
X18900000Y-24926000D01*
X18883387Y-24988000D01*
X18838000Y-25033387D01*
X18776000Y-25050000D01*
X3099000Y-25050000D01*
X3037000Y-25033387D01*
X2991613Y-24988000D01*
X2975000Y-24926000D01*
X2975000Y-24549999D01*
X14475000Y-24549999D01*
X14475002Y-24550000D01*
X15875000Y-24550000D01*
X15875000Y-23050001D01*
X15175021Y-23050001D01*
X15072304Y-23060493D01*
X14905877Y-23115642D01*
X14756654Y-23207683D01*
X14632683Y-23331654D01*
X14540642Y-23480877D01*
X14485493Y-23647303D01*
X14475000Y-23750020D01*
X14475000Y-24549999D01*
X2975000Y-24549999D01*
X2975000Y-23674000D01*
X2991613Y-23612000D01*
X3037000Y-23566613D01*
X3099000Y-23550000D01*
X7725000Y-23550000D01*
X7725000Y-20800000D01*
X8225000Y-20800000D01*
X8225000Y-23550000D01*
X13022824Y-23550000D01*
X13082375Y-23543597D01*
X13217089Y-23493352D01*
X13332188Y-23407188D01*
X13418352Y-23292089D01*
X13468597Y-23157375D01*
X13475000Y-23097824D01*
X13475000Y-23050000D01*
X16375000Y-23050000D01*
X16375000Y-24550000D01*
X17774999Y-24550000D01*
X17774999Y-23750021D01*
X17764506Y-23647304D01*
X17709357Y-23480877D01*
X17617316Y-23331654D01*
X17493345Y-23207683D01*
X17344122Y-23115642D01*
X17177696Y-23060493D01*
X17074979Y-23050000D01*
X16375000Y-23050000D01*
X13475000Y-23050000D01*
X13475000Y-20800000D01*
X8225000Y-20800000D01*
X7725000Y-20800000D01*
X7725000Y-20424000D01*
X7741613Y-20362000D01*
X7787000Y-20316613D01*
X7849000Y-20300000D01*
X13475000Y-20300000D01*
X13475000Y-18002176D01*
X13468597Y-17942624D01*
X13418352Y-17807910D01*
X13373736Y-17748311D01*
X13349497Y-17685053D01*
X13362119Y-17618496D01*
X13407836Y-17568505D01*
X13473003Y-17550000D01*
X18775500Y-17550000D01*
X18837500Y-17566613D01*
G37*
%TD.AperFunction*%
%TD*%
%TA.AperFunction,Conductor*%
%TO.N,/Vout*%
G36*
X25967164Y-17568505D02*
G01*
X26012881Y-17618496D01*
X26025503Y-17685053D01*
X26001264Y-17748311D01*
X25956647Y-17807910D01*
X25906402Y-17942624D01*
X25900000Y-18002176D01*
X25900000Y-20300000D01*
X31526000Y-20300000D01*
X31588000Y-20316613D01*
X31633387Y-20362000D01*
X31650000Y-20424000D01*
X31650000Y-23550000D01*
X36276000Y-23550000D01*
X36338000Y-23566613D01*
X36383387Y-23612000D01*
X36400000Y-23674000D01*
X36400000Y-24926000D01*
X36383387Y-24988000D01*
X36338000Y-25033387D01*
X36276000Y-25050000D01*
X20974000Y-25050000D01*
X20912000Y-25033387D01*
X20866613Y-24988000D01*
X20850000Y-24926000D01*
X20850000Y-20800000D01*
X25900000Y-20800000D01*
X25900000Y-23097824D01*
X25906402Y-23157375D01*
X25956647Y-23292089D01*
X26042811Y-23407188D01*
X26157910Y-23493352D01*
X26292624Y-23543597D01*
X26352176Y-23550000D01*
X31150000Y-23550000D01*
X31150000Y-20800000D01*
X25900000Y-20800000D01*
X20850000Y-20800000D01*
X20850000Y-19642740D01*
X20850500Y-19631714D01*
X20850500Y-19118286D01*
X20850000Y-19107260D01*
X20850000Y-17992740D01*
X20850500Y-17981714D01*
X20850500Y-17674000D01*
X20867113Y-17612000D01*
X20912500Y-17566613D01*
X20974500Y-17550000D01*
X25901997Y-17550000D01*
X25967164Y-17568505D01*
G37*
%TD.AperFunction*%
%TD*%
%TA.AperFunction,Conductor*%
%TO.N,Net-(D1-K)*%
G36*
X20318286Y-11325500D02*
G01*
X20318384Y-11325500D01*
X20831616Y-11325500D01*
X20831714Y-11325500D01*
X20842740Y-11325000D01*
X21975000Y-11325000D01*
X22475000Y-11325000D01*
X24501000Y-11325000D01*
X24563000Y-11341613D01*
X24608387Y-11387000D01*
X24625000Y-11449000D01*
X24625000Y-16626000D01*
X24608387Y-16688000D01*
X24563000Y-16733387D01*
X24501000Y-16750000D01*
X21474000Y-16750000D01*
X21412000Y-16733387D01*
X21366613Y-16688000D01*
X21350000Y-16626000D01*
X21350000Y-13075000D01*
X17125000Y-13075000D01*
X17125000Y-16626000D01*
X17108387Y-16688000D01*
X17063000Y-16733387D01*
X17001000Y-16750000D01*
X13974000Y-16750000D01*
X13912000Y-16733387D01*
X13866613Y-16688000D01*
X13850000Y-16626000D01*
X13850000Y-12575000D01*
X18525000Y-12575000D01*
X19625000Y-12575000D01*
X19625000Y-11825000D01*
X20125000Y-11825000D01*
X20125000Y-12575000D01*
X21225000Y-12575000D01*
X21225000Y-12277176D01*
X21218597Y-12217624D01*
X21168352Y-12082910D01*
X21082188Y-11967811D01*
X20967089Y-11881647D01*
X20832375Y-11831402D01*
X20772824Y-11825000D01*
X20125000Y-11825000D01*
X19625000Y-11825000D01*
X18977176Y-11825000D01*
X18917624Y-11831402D01*
X18782910Y-11881647D01*
X18667811Y-11967811D01*
X18581647Y-12082910D01*
X18531402Y-12217624D01*
X18525000Y-12277176D01*
X18525000Y-12575000D01*
X13850000Y-12575000D01*
X13850000Y-11449000D01*
X13866613Y-11387000D01*
X13912000Y-11341613D01*
X13974000Y-11325000D01*
X20307260Y-11325000D01*
X20318286Y-11325500D01*
G37*
%TD.AperFunction*%
%TD*%
%TA.AperFunction,Conductor*%
%TO.N,GND*%
G36*
X37762500Y-1517113D02*
G01*
X37807887Y-1562500D01*
X37824500Y-1624500D01*
X37824500Y-34700500D01*
X37807887Y-34762500D01*
X37762500Y-34807887D01*
X37700500Y-34824500D01*
X1624500Y-34824500D01*
X1562500Y-34807887D01*
X1517113Y-34762500D01*
X1500500Y-34700500D01*
X1500500Y-31100000D01*
X2475000Y-31100000D01*
X2475000Y-33397824D01*
X2481402Y-33457375D01*
X2531647Y-33592089D01*
X2617811Y-33707188D01*
X2732910Y-33793352D01*
X2867624Y-33843597D01*
X2927176Y-33850000D01*
X7725000Y-33850000D01*
X7725000Y-31100000D01*
X8225000Y-31100000D01*
X8225000Y-33850000D01*
X13022824Y-33850000D01*
X13082375Y-33843597D01*
X13217089Y-33793352D01*
X13332188Y-33707188D01*
X13418352Y-33592089D01*
X13468597Y-33457375D01*
X13475000Y-33397824D01*
X13475000Y-31100000D01*
X25850000Y-31100000D01*
X25850000Y-33397824D01*
X25856402Y-33457375D01*
X25906647Y-33592089D01*
X25992811Y-33707188D01*
X26107910Y-33793352D01*
X26242624Y-33843597D01*
X26302176Y-33850000D01*
X31100000Y-33850000D01*
X31100000Y-31100000D01*
X31600000Y-31100000D01*
X31600000Y-33850000D01*
X36397824Y-33850000D01*
X36457375Y-33843597D01*
X36592089Y-33793352D01*
X36707188Y-33707188D01*
X36793352Y-33592089D01*
X36843597Y-33457375D01*
X36850000Y-33397824D01*
X36850000Y-31100000D01*
X31600000Y-31100000D01*
X31100000Y-31100000D01*
X25850000Y-31100000D01*
X13475000Y-31100000D01*
X8225000Y-31100000D01*
X7725000Y-31100000D01*
X2475000Y-31100000D01*
X1500500Y-31100000D01*
X1500500Y-30600000D01*
X2475000Y-30600000D01*
X7725000Y-30600000D01*
X7725000Y-27850000D01*
X8225000Y-27850000D01*
X8225000Y-30600000D01*
X13475000Y-30600000D01*
X13475000Y-29350000D01*
X14475001Y-29350000D01*
X14475001Y-30149979D01*
X14485493Y-30252695D01*
X14540642Y-30419122D01*
X14632683Y-30568345D01*
X14756654Y-30692316D01*
X14905877Y-30784357D01*
X15072303Y-30839506D01*
X15175021Y-30850000D01*
X15875000Y-30850000D01*
X15875000Y-29350000D01*
X16375000Y-29350000D01*
X16375000Y-30849999D01*
X17074979Y-30849999D01*
X17177695Y-30839506D01*
X17344122Y-30784357D01*
X17493345Y-30692316D01*
X17585661Y-30600000D01*
X25850000Y-30600000D01*
X31100000Y-30600000D01*
X31100000Y-27850000D01*
X31600000Y-27850000D01*
X31600000Y-30600000D01*
X36850000Y-30600000D01*
X36850000Y-28302176D01*
X36843597Y-28242624D01*
X36793352Y-28107910D01*
X36707188Y-27992811D01*
X36592089Y-27906647D01*
X36457375Y-27856402D01*
X36397824Y-27850000D01*
X31600000Y-27850000D01*
X31100000Y-27850000D01*
X26302176Y-27850000D01*
X26242624Y-27856402D01*
X26107910Y-27906647D01*
X25992811Y-27992811D01*
X25906647Y-28107910D01*
X25856402Y-28242624D01*
X25850000Y-28302176D01*
X25850000Y-30600000D01*
X17585661Y-30600000D01*
X17617316Y-30568345D01*
X17709357Y-30419122D01*
X17764506Y-30252696D01*
X17775000Y-30149979D01*
X17775000Y-29350000D01*
X16375000Y-29350000D01*
X15875000Y-29350000D01*
X14475001Y-29350000D01*
X13475000Y-29350000D01*
X13475000Y-28850000D01*
X14475000Y-28850000D01*
X15875000Y-28850000D01*
X15875000Y-27350001D01*
X15175021Y-27350001D01*
X15072304Y-27360493D01*
X14905877Y-27415642D01*
X14756654Y-27507683D01*
X14632683Y-27631654D01*
X14540642Y-27780877D01*
X14485493Y-27947303D01*
X14475000Y-28050021D01*
X14475000Y-28850000D01*
X13475000Y-28850000D01*
X13475000Y-28302176D01*
X13468597Y-28242624D01*
X13418352Y-28107910D01*
X13332188Y-27992811D01*
X13217089Y-27906647D01*
X13082375Y-27856402D01*
X13022824Y-27850000D01*
X8225000Y-27850000D01*
X7725000Y-27850000D01*
X2927176Y-27850000D01*
X2867624Y-27856402D01*
X2732910Y-27906647D01*
X2617811Y-27992811D01*
X2531647Y-28107910D01*
X2481402Y-28242624D01*
X2475000Y-28302176D01*
X2475000Y-30600000D01*
X1500500Y-30600000D01*
X1500500Y-27350000D01*
X16375000Y-27350000D01*
X16375000Y-28850000D01*
X17774999Y-28850000D01*
X17774999Y-28050021D01*
X17764506Y-27947304D01*
X17709357Y-27780877D01*
X17617316Y-27631654D01*
X17493345Y-27507683D01*
X17344122Y-27415642D01*
X17177696Y-27360493D01*
X17074979Y-27350000D01*
X16375000Y-27350000D01*
X1500500Y-27350000D01*
X1500500Y-24926001D01*
X2469500Y-24926001D01*
X2486724Y-25056830D01*
X2503339Y-25118838D01*
X2553836Y-25240749D01*
X2634170Y-25345442D01*
X2679557Y-25390829D01*
X2784250Y-25471163D01*
X2906166Y-25521662D01*
X2968166Y-25538275D01*
X3066291Y-25551193D01*
X3098999Y-25555500D01*
X3099000Y-25555500D01*
X14350501Y-25555500D01*
X14412501Y-25572113D01*
X14457888Y-25617500D01*
X14474501Y-25679500D01*
X14474501Y-25850009D01*
X14485000Y-25952796D01*
X14540186Y-26119334D01*
X14632288Y-26268657D01*
X14756342Y-26392711D01*
X14756344Y-26392712D01*
X14905666Y-26484814D01*
X15017016Y-26521712D01*
X15072202Y-26539999D01*
X15082702Y-26541071D01*
X15174991Y-26550500D01*
X17075008Y-26550499D01*
X17177797Y-26539999D01*
X17344334Y-26484814D01*
X17493656Y-26392712D01*
X17617712Y-26268656D01*
X17709814Y-26119334D01*
X17764999Y-25952797D01*
X17775500Y-25850009D01*
X17775500Y-25679500D01*
X17792113Y-25617500D01*
X17837500Y-25572113D01*
X17899500Y-25555500D01*
X18776001Y-25555500D01*
X18802166Y-25552054D01*
X18906834Y-25538275D01*
X18968834Y-25521662D01*
X19090750Y-25471163D01*
X19195442Y-25390829D01*
X19240829Y-25345442D01*
X19321163Y-25240750D01*
X19371662Y-25118834D01*
X19388275Y-25056834D01*
X19405500Y-24926000D01*
X19405500Y-20398244D01*
X19424036Y-20333028D01*
X19474101Y-20287308D01*
X19537803Y-20275305D01*
X19537803Y-20275000D01*
X19539423Y-20275000D01*
X19540729Y-20274754D01*
X19543434Y-20275000D01*
X19625000Y-20275000D01*
X19625000Y-19249000D01*
X19641613Y-19187000D01*
X19687000Y-19141613D01*
X19749000Y-19125000D01*
X20001000Y-19125000D01*
X20063000Y-19141613D01*
X20108387Y-19187000D01*
X20125000Y-19249000D01*
X20125000Y-20274999D01*
X20206568Y-20274999D01*
X20209274Y-20274753D01*
X20210579Y-20274999D01*
X20212195Y-20274999D01*
X20212195Y-20275303D01*
X20275900Y-20287308D01*
X20325965Y-20333028D01*
X20344500Y-20398244D01*
X20344500Y-24926001D01*
X20361724Y-25056830D01*
X20378339Y-25118838D01*
X20428836Y-25240749D01*
X20509170Y-25345442D01*
X20554557Y-25390829D01*
X20659250Y-25471163D01*
X20781166Y-25521662D01*
X20843166Y-25538275D01*
X20941291Y-25551193D01*
X20973999Y-25555500D01*
X20974000Y-25555500D01*
X36276000Y-25555500D01*
X36276001Y-25555500D01*
X36302166Y-25552054D01*
X36406834Y-25538275D01*
X36468834Y-25521662D01*
X36590750Y-25471163D01*
X36695442Y-25390829D01*
X36740829Y-25345442D01*
X36821163Y-25240750D01*
X36871662Y-25118834D01*
X36888275Y-25056834D01*
X36905500Y-24926000D01*
X36905500Y-23674000D01*
X36888275Y-23543166D01*
X36871662Y-23481166D01*
X36838402Y-23400868D01*
X36829934Y-23337926D01*
X36841083Y-23310349D01*
X36837565Y-23309037D01*
X36894090Y-23157485D01*
X36894089Y-23157485D01*
X36894091Y-23157483D01*
X36900500Y-23097873D01*
X36900499Y-18002128D01*
X36894091Y-17942517D01*
X36843796Y-17807669D01*
X36757546Y-17692454D01*
X36642331Y-17606204D01*
X36507483Y-17555909D01*
X36447873Y-17549500D01*
X36447869Y-17549500D01*
X26607035Y-17549500D01*
X26557038Y-17538974D01*
X26515529Y-17509182D01*
X26489556Y-17465183D01*
X26464912Y-17392226D01*
X26385915Y-17277357D01*
X26340195Y-17227363D01*
X26232826Y-17138442D01*
X26105241Y-17082227D01*
X26091243Y-17078252D01*
X26033128Y-17042116D01*
X26003032Y-16980656D01*
X26010121Y-16912591D01*
X26052233Y-16858653D01*
X26135871Y-16797888D01*
X26262533Y-16657216D01*
X26357179Y-16493284D01*
X26415674Y-16313256D01*
X26430500Y-16172192D01*
X26430500Y-9334759D01*
X26436846Y-9295600D01*
X26455231Y-9260450D01*
X26468796Y-9242331D01*
X26519091Y-9107483D01*
X26525500Y-9047873D01*
X26525499Y-7252128D01*
X26519091Y-7192517D01*
X26490168Y-7114971D01*
X26483126Y-7057800D01*
X26502679Y-7003612D01*
X26544608Y-6964107D01*
X26599861Y-6947812D01*
X26666646Y-6944313D01*
X26680193Y-6940682D01*
X26699309Y-6937139D01*
X26713256Y-6935674D01*
X26777786Y-6914706D01*
X26783951Y-6912880D01*
X26849488Y-6895320D01*
X26861974Y-6888956D01*
X26879953Y-6881509D01*
X26893284Y-6877179D01*
X26952051Y-6843248D01*
X26957677Y-6840193D01*
X27018149Y-6809383D01*
X27029042Y-6800560D01*
X27045074Y-6789542D01*
X27057216Y-6782533D01*
X27107639Y-6737131D01*
X27112521Y-6732961D01*
X27128380Y-6720119D01*
X27142801Y-6705696D01*
X27147472Y-6701264D01*
X27197888Y-6655871D01*
X27206129Y-6644526D01*
X27218760Y-6629737D01*
X27508053Y-6340444D01*
X27543326Y-6315746D01*
X27584924Y-6304600D01*
X27688091Y-6295573D01*
X27801692Y-6285635D01*
X28021496Y-6226739D01*
X28227734Y-6130568D01*
X28414139Y-6000047D01*
X28575047Y-5839139D01*
X28705568Y-5652734D01*
X28801739Y-5446496D01*
X28860635Y-5226692D01*
X28880468Y-5000000D01*
X28860635Y-4773308D01*
X28801739Y-4553504D01*
X28785073Y-4517764D01*
X33020787Y-4517764D01*
X33050413Y-4787016D01*
X33067010Y-4850500D01*
X33118928Y-5049088D01*
X33194402Y-5226692D01*
X33224871Y-5298392D01*
X33365982Y-5529611D01*
X33536332Y-5734308D01*
X33539255Y-5737820D01*
X33740998Y-5918582D01*
X33966910Y-6068044D01*
X34073211Y-6117875D01*
X34212177Y-6183021D01*
X34471562Y-6261058D01*
X34471569Y-6261060D01*
X34739561Y-6300500D01*
X34942631Y-6300500D01*
X34942634Y-6300500D01*
X35145156Y-6285677D01*
X35145345Y-6285635D01*
X35409553Y-6226780D01*
X35662558Y-6130014D01*
X35898777Y-5997441D01*
X36113177Y-5831888D01*
X36301186Y-5636881D01*
X36458799Y-5416579D01*
X36582656Y-5175675D01*
X36670118Y-4919305D01*
X36719319Y-4652933D01*
X36729212Y-4382235D01*
X36699586Y-4112982D01*
X36631072Y-3850912D01*
X36525130Y-3601610D01*
X36384018Y-3370390D01*
X36384017Y-3370388D01*
X36210746Y-3162181D01*
X36105758Y-3068112D01*
X36009002Y-2981418D01*
X35783090Y-2831956D01*
X35783086Y-2831954D01*
X35537822Y-2716978D01*
X35278437Y-2638941D01*
X35278431Y-2638940D01*
X35010439Y-2599500D01*
X34807369Y-2599500D01*
X34807366Y-2599500D01*
X34604843Y-2614322D01*
X34340449Y-2673219D01*
X34087441Y-2769986D01*
X33851223Y-2902559D01*
X33636825Y-3068109D01*
X33448813Y-3263120D01*
X33291201Y-3483420D01*
X33167342Y-3724329D01*
X33079881Y-3980695D01*
X33030680Y-4247066D01*
X33020787Y-4517764D01*
X28785073Y-4517764D01*
X28705568Y-4347266D01*
X28674273Y-4302572D01*
X28575046Y-4160859D01*
X28414140Y-3999953D01*
X28227735Y-3869432D01*
X28021497Y-3773261D01*
X27801689Y-3714364D01*
X27575000Y-3694531D01*
X27348310Y-3714364D01*
X27128502Y-3773261D01*
X26922264Y-3869432D01*
X26735859Y-3999953D01*
X26678862Y-4056951D01*
X26624479Y-4088716D01*
X26561506Y-4089667D01*
X26506188Y-4059560D01*
X26472796Y-4006161D01*
X26443018Y-3910602D01*
X26355074Y-3765124D01*
X26234875Y-3644925D01*
X26089396Y-3556980D01*
X25927106Y-3506409D01*
X25856576Y-3500000D01*
X25775000Y-3500000D01*
X25775000Y-4526000D01*
X25758387Y-4588000D01*
X25713000Y-4633387D01*
X25651000Y-4650000D01*
X24550001Y-4650000D01*
X24550001Y-4656579D01*
X24556408Y-4727104D01*
X24606981Y-4889397D01*
X24694925Y-5034875D01*
X24797015Y-5136965D01*
X24829109Y-5192552D01*
X24829109Y-5256740D01*
X24797015Y-5312327D01*
X24694528Y-5414813D01*
X24606523Y-5560392D01*
X24555913Y-5722806D01*
X24549500Y-5793383D01*
X24549500Y-6306617D01*
X24555913Y-6377193D01*
X24606523Y-6539610D01*
X24606617Y-6539764D01*
X24606999Y-6541137D01*
X24611002Y-6553981D01*
X24610614Y-6554101D01*
X24624500Y-6603913D01*
X24624500Y-6958561D01*
X24618155Y-6997720D01*
X24599768Y-7032871D01*
X24581204Y-7057669D01*
X24530909Y-7192516D01*
X24524500Y-7252130D01*
X24524500Y-9047869D01*
X24530909Y-9107484D01*
X24581204Y-9242332D01*
X24604767Y-9273808D01*
X24623154Y-9308959D01*
X24629500Y-9348118D01*
X24629500Y-10695500D01*
X24612887Y-10757500D01*
X24567500Y-10802887D01*
X24505500Y-10819500D01*
X23249500Y-10819500D01*
X23187500Y-10802887D01*
X23142113Y-10757500D01*
X23125500Y-10695500D01*
X23125500Y-9341439D01*
X23131845Y-9302280D01*
X23150232Y-9267129D01*
X23168796Y-9242331D01*
X23219091Y-9107483D01*
X23225500Y-9047873D01*
X23225499Y-7252128D01*
X23219091Y-7192517D01*
X23168796Y-7057669D01*
X23150231Y-7032869D01*
X23131845Y-6997720D01*
X23125500Y-6958561D01*
X23125500Y-6741364D01*
X23141790Y-6679927D01*
X23186378Y-6634632D01*
X23214365Y-6618081D01*
X23330581Y-6501865D01*
X23414244Y-6360398D01*
X23460098Y-6202569D01*
X23463000Y-6165694D01*
X23463000Y-5734306D01*
X23460098Y-5697431D01*
X23453074Y-5673256D01*
X23414244Y-5539602D01*
X23359181Y-5446496D01*
X23330581Y-5398135D01*
X23214365Y-5281919D01*
X23072897Y-5198255D01*
X22915072Y-5152402D01*
X22892943Y-5150660D01*
X22878194Y-5149500D01*
X22878192Y-5149500D01*
X22667367Y-5149500D01*
X22616931Y-5138779D01*
X22601957Y-5132112D01*
X22559131Y-5113044D01*
X22513201Y-5077799D01*
X22488277Y-5025544D01*
X22489794Y-4967670D01*
X22517419Y-4916792D01*
X22565127Y-4884003D01*
X22630955Y-4858734D01*
X22675388Y-4850500D01*
X22878192Y-4850500D01*
X22878194Y-4850500D01*
X22915069Y-4847598D01*
X23072898Y-4801744D01*
X23214365Y-4718081D01*
X23330581Y-4601865D01*
X23414244Y-4460398D01*
X23460098Y-4302569D01*
X23463000Y-4265694D01*
X23463000Y-4150000D01*
X24550000Y-4150000D01*
X25275000Y-4150000D01*
X25275000Y-3500001D01*
X25193421Y-3500001D01*
X25122895Y-3506408D01*
X24960602Y-3556981D01*
X24815124Y-3644925D01*
X24694925Y-3765124D01*
X24606980Y-3910603D01*
X24556409Y-4072893D01*
X24550000Y-4143424D01*
X24550000Y-4150000D01*
X23463000Y-4150000D01*
X23463000Y-3834306D01*
X23460098Y-3797431D01*
X23439743Y-3727371D01*
X23414244Y-3639602D01*
X23365382Y-3556981D01*
X23330581Y-3498135D01*
X23214365Y-3381919D01*
X23072897Y-3298255D01*
X22915072Y-3252402D01*
X22892944Y-3250660D01*
X22878194Y-3249500D01*
X22878192Y-3249500D01*
X22749362Y-3249500D01*
X22701909Y-3240061D01*
X22661681Y-3213181D01*
X22193764Y-2745265D01*
X22181125Y-2730467D01*
X22172888Y-2719129D01*
X22170501Y-2716980D01*
X22122482Y-2673743D01*
X22117773Y-2669274D01*
X22103382Y-2654883D01*
X22103378Y-2654880D01*
X22087556Y-2642066D01*
X22082626Y-2637855D01*
X22032215Y-2592466D01*
X22020076Y-2585458D01*
X22004043Y-2574439D01*
X21993149Y-2565617D01*
X21993147Y-2565616D01*
X21993146Y-2565615D01*
X21932713Y-2534823D01*
X21927008Y-2531725D01*
X21868283Y-2497820D01*
X21854953Y-2493489D01*
X21836974Y-2486042D01*
X21824487Y-2479679D01*
X21758976Y-2462125D01*
X21752754Y-2460282D01*
X21688254Y-2439325D01*
X21674315Y-2437860D01*
X21655187Y-2434315D01*
X21641645Y-2430686D01*
X21573909Y-2427136D01*
X21567445Y-2426627D01*
X21547198Y-2424500D01*
X21547192Y-2424500D01*
X21526826Y-2424500D01*
X21520337Y-2424330D01*
X21515375Y-2424069D01*
X21452612Y-2420781D01*
X21452611Y-2420781D01*
X21445076Y-2421974D01*
X21438771Y-2422973D01*
X21419374Y-2424500D01*
X17758031Y-2424500D01*
X17738633Y-2422973D01*
X17724793Y-2420781D01*
X17657069Y-2424330D01*
X17650580Y-2424500D01*
X17630207Y-2424500D01*
X17609959Y-2426627D01*
X17603496Y-2427136D01*
X17535757Y-2430687D01*
X17522210Y-2434316D01*
X17503094Y-2437859D01*
X17489148Y-2439325D01*
X17424643Y-2460284D01*
X17418421Y-2462127D01*
X17352919Y-2479678D01*
X17340424Y-2486045D01*
X17322459Y-2493486D01*
X17309122Y-2497820D01*
X17250392Y-2531726D01*
X17244693Y-2534820D01*
X17184256Y-2565615D01*
X17173353Y-2574444D01*
X17157330Y-2585456D01*
X17145188Y-2592466D01*
X17094799Y-2637837D01*
X17089870Y-2642047D01*
X17074028Y-2654877D01*
X17059607Y-2669297D01*
X17054903Y-2673760D01*
X17004515Y-2719130D01*
X16996277Y-2730468D01*
X16983643Y-2745260D01*
X16110263Y-3618641D01*
X16095471Y-3631276D01*
X16084127Y-3639518D01*
X16038751Y-3689913D01*
X16034288Y-3694617D01*
X16019874Y-3709031D01*
X16007058Y-3724856D01*
X16002852Y-3729781D01*
X15957466Y-3780189D01*
X15950458Y-3792327D01*
X15939442Y-3808355D01*
X15930619Y-3819250D01*
X15899818Y-3879700D01*
X15896722Y-3885401D01*
X15862822Y-3944118D01*
X15858488Y-3957457D01*
X15851044Y-3975427D01*
X15844680Y-3987917D01*
X15827126Y-4053422D01*
X15825284Y-4059639D01*
X15804325Y-4124148D01*
X15802860Y-4138091D01*
X15799315Y-4157219D01*
X15795686Y-4170760D01*
X15792136Y-4238496D01*
X15791627Y-4244959D01*
X15789500Y-4265207D01*
X15789500Y-4285579D01*
X15789330Y-4292068D01*
X15785781Y-4359793D01*
X15787973Y-4373632D01*
X15789500Y-4393031D01*
X15789500Y-5500500D01*
X15772887Y-5562500D01*
X15727500Y-5607887D01*
X15665500Y-5624500D01*
X14371806Y-5624500D01*
X14359514Y-5625467D01*
X14334927Y-5627402D01*
X14177102Y-5673255D01*
X14035634Y-5756919D01*
X13919419Y-5873134D01*
X13835755Y-6014602D01*
X13789902Y-6172427D01*
X13787000Y-6209308D01*
X13787000Y-6640692D01*
X13789902Y-6677572D01*
X13835755Y-6835397D01*
X13881574Y-6912873D01*
X13919419Y-6976865D01*
X14035635Y-7093081D01*
X14147616Y-7159306D01*
X14177102Y-7176744D01*
X14334927Y-7222597D01*
X14334931Y-7222598D01*
X14371806Y-7225500D01*
X15538000Y-7225500D01*
X15600000Y-7242113D01*
X15645387Y-7287500D01*
X15662000Y-7349500D01*
X15662000Y-7401000D01*
X15645387Y-7463000D01*
X15600000Y-7508387D01*
X15538000Y-7525000D01*
X15275000Y-7525000D01*
X15275000Y-9125000D01*
X15678139Y-9125000D01*
X15714993Y-9122099D01*
X15840905Y-9085519D01*
X15897778Y-9082613D01*
X15949952Y-9105434D01*
X15986424Y-9149170D01*
X15999500Y-9204595D01*
X15999500Y-9569374D01*
X15997973Y-9588773D01*
X15995781Y-9602611D01*
X15999330Y-9670337D01*
X15999500Y-9676826D01*
X15999500Y-9697198D01*
X16001627Y-9717445D01*
X16002136Y-9723909D01*
X16005686Y-9791645D01*
X16009315Y-9805187D01*
X16012860Y-9824315D01*
X16014325Y-9838254D01*
X16035282Y-9902754D01*
X16037125Y-9908976D01*
X16054679Y-9974487D01*
X16061042Y-9986974D01*
X16068489Y-10004953D01*
X16072820Y-10018283D01*
X16106725Y-10077008D01*
X16109823Y-10082713D01*
X16140617Y-10143149D01*
X16149439Y-10154043D01*
X16160458Y-10170076D01*
X16167466Y-10182215D01*
X16212855Y-10232626D01*
X16217066Y-10237556D01*
X16229883Y-10253382D01*
X16244274Y-10267773D01*
X16248743Y-10272482D01*
X16294129Y-10322888D01*
X16305467Y-10331125D01*
X16320265Y-10343764D01*
X16584320Y-10607819D01*
X16614570Y-10657182D01*
X16619112Y-10714898D01*
X16596957Y-10768385D01*
X16552934Y-10805985D01*
X16496639Y-10819500D01*
X13973999Y-10819500D01*
X13843169Y-10836724D01*
X13781161Y-10853339D01*
X13659250Y-10903836D01*
X13554557Y-10984170D01*
X13509170Y-11029557D01*
X13428836Y-11134250D01*
X13378339Y-11256161D01*
X13361724Y-11318169D01*
X13344500Y-11448999D01*
X13344500Y-11449000D01*
X13344500Y-16626000D01*
X13361725Y-16756834D01*
X13378338Y-16818834D01*
X13394831Y-16858651D01*
X13411226Y-16898233D01*
X13418885Y-16966612D01*
X13388913Y-17028547D01*
X13330537Y-17064969D01*
X13269752Y-17082230D01*
X13269749Y-17082231D01*
X13269750Y-17082231D01*
X13142173Y-17138442D01*
X13034804Y-17227363D01*
X12989084Y-17277357D01*
X12910085Y-17392229D01*
X12885442Y-17465184D01*
X12859469Y-17509183D01*
X12817961Y-17538974D01*
X12767964Y-17549500D01*
X2927130Y-17549500D01*
X2867515Y-17555909D01*
X2732669Y-17606204D01*
X2617454Y-17692454D01*
X2531204Y-17807668D01*
X2480909Y-17942516D01*
X2474500Y-18002130D01*
X2474500Y-23097869D01*
X2480909Y-23157484D01*
X2537435Y-23309036D01*
X2533921Y-23310346D01*
X2545073Y-23337991D01*
X2536598Y-23400867D01*
X2503338Y-23481164D01*
X2486725Y-23543167D01*
X2485101Y-23555501D01*
X2469500Y-23674000D01*
X2469500Y-24926001D01*
X1500500Y-24926001D01*
X1500500Y-8575000D01*
X13790204Y-8575000D01*
X13790400Y-8577488D01*
X13836219Y-8735200D01*
X13919817Y-8876557D01*
X14035942Y-8992682D01*
X14177302Y-9076282D01*
X14335006Y-9122099D01*
X14371861Y-9125000D01*
X14775000Y-9125000D01*
X14775000Y-8575000D01*
X13790204Y-8575000D01*
X1500500Y-8575000D01*
X1500500Y-8074999D01*
X13790204Y-8074999D01*
X13790205Y-8075000D01*
X14775000Y-8075000D01*
X14775000Y-7525000D01*
X14371861Y-7525000D01*
X14335006Y-7527900D01*
X14177302Y-7573717D01*
X14035942Y-7657317D01*
X13919817Y-7773442D01*
X13836219Y-7914799D01*
X13790400Y-8072511D01*
X13790204Y-8074999D01*
X1500500Y-8074999D01*
X1500500Y-4517764D01*
X2595787Y-4517764D01*
X2625413Y-4787016D01*
X2642010Y-4850500D01*
X2693928Y-5049088D01*
X2769402Y-5226692D01*
X2799871Y-5298392D01*
X2940982Y-5529611D01*
X3111332Y-5734308D01*
X3114255Y-5737820D01*
X3315998Y-5918582D01*
X3541910Y-6068044D01*
X3648211Y-6117875D01*
X3787177Y-6183021D01*
X4046562Y-6261058D01*
X4046569Y-6261060D01*
X4314561Y-6300500D01*
X4517631Y-6300500D01*
X4517634Y-6300500D01*
X4720156Y-6285677D01*
X4720345Y-6285635D01*
X4984553Y-6226780D01*
X5237558Y-6130014D01*
X5473777Y-5997441D01*
X5688177Y-5831888D01*
X5876186Y-5636881D01*
X6033799Y-5416579D01*
X6157656Y-5175675D01*
X6245118Y-4919305D01*
X6294319Y-4652933D01*
X6304212Y-4382235D01*
X6274586Y-4112982D01*
X6206072Y-3850912D01*
X6100130Y-3601610D01*
X5959018Y-3370390D01*
X5959017Y-3370388D01*
X5785746Y-3162181D01*
X5680758Y-3068112D01*
X5584002Y-2981418D01*
X5358090Y-2831956D01*
X5358086Y-2831954D01*
X5112822Y-2716978D01*
X4853437Y-2638941D01*
X4853431Y-2638940D01*
X4585439Y-2599500D01*
X4382369Y-2599500D01*
X4382366Y-2599500D01*
X4179843Y-2614322D01*
X3915449Y-2673219D01*
X3662441Y-2769986D01*
X3426223Y-2902559D01*
X3211825Y-3068109D01*
X3023813Y-3263120D01*
X2866201Y-3483420D01*
X2742342Y-3724329D01*
X2654881Y-3980695D01*
X2605680Y-4247066D01*
X2595787Y-4517764D01*
X1500500Y-4517764D01*
X1500500Y-1624500D01*
X1517113Y-1562500D01*
X1562500Y-1517113D01*
X1624500Y-1500500D01*
X37700500Y-1500500D01*
X37762500Y-1517113D01*
G37*
%TD.AperFunction*%
%TD*%
M02*
